<svg width="20" height="18" viewBox="0 0 20 18" fill="none" xmlns="http://www.w3.org/2000/svg">
<path d="M20 8.09368L19.9574 8.17799H20V9.90632C20 10.1311 19.9574 10.356 19.8723 10.5808L17.1064 16.904C16.8227 17.6347 16.2695 18 15.4468 18H7.2766C6.79433 18 6.36879 17.8173 6 17.452C5.63121 17.0867 5.44681 16.6651 5.44681 16.1874V7.20843C5.44681 6.73068 5.63121 6.30913 6 5.94379L11.9574 0L12.9362 0.969555C13.1915 1.22248 13.3191 1.53162 13.3191 1.89696V2.19204L12.4255 6.32318H18.1702C18.6525 6.32318 19.078 6.50585 19.4468 6.87119C19.8156 7.20843 20 7.61592 20 8.09368ZM0 18V7.20843H3.65957V18H0Z" fill="url(#paint0_linear)"/>
<defs>
<linearGradient id="paint0_linear" x1="10" y1="0" x2="10" y2="18" gradientUnits="userSpaceOnUse">
<stop stop-color="#7CB8F7"/>
<stop offset="1" stop-color="#2A8BF2"/>
</linearGradient>
</defs>
</svg>
